<svg width="1024" height="1024" viewBox="0 0 1024 1024" fill="none" xmlns="http://www.w3.org/2000/svg">
  <defs>
    <linearGradient id="bg" x1="128" y1="128" x2="896" y2="896" gradientUnits="userSpaceOnUse">
      <stop stop-color="#FF5A76"/>
      <stop offset="1" stop-color="#FF7F8F"/>
    </linearGradient>
    <linearGradient id="heart" x1="218" y1="276" x2="836" y2="760" gradientUnits="userSpaceOnUse">
      <stop stop-color="#FF6C82"/>
      <stop offset="0.5" stop-color="#FF6C82"/>
      <stop offset="0.5001" stop-color="#5DA7FF"/>
      <stop offset="1" stop-color="#2F7CF6"/>
    </linearGradient>
    <filter id="softShadow" x="130" y="175" width="780" height="710" filterUnits="userSpaceOnUse" color-interpolation-filters="sRGB">
      <feDropShadow dx="0" dy="18" stdDeviation="22" flood-color="#172554" flood-opacity="0.16"/>
    </filter>
  </defs>

  <rect x="32" y="32" width="960" height="960" rx="220" fill="url(#bg)"/>

  <!-- large couple heart, intentionally fills most of the icon for visibility -->
  <path d="M512 790C350 662 214 548 214 402C214 306 282 236 376 236C432 236 481 264 512 308C543 264 592 236 648 236C742 236 810 306 810 402C810 548 674 662 512 790Z" fill="url(#heart)" opacity="0.96"/>

  <!-- route line -->
  <path d="M154 736C246 692 276 625 356 604C446 580 562 626 654 548C716 495 720 430 809 372" stroke="white" stroke-width="34" stroke-linecap="round" opacity="0.95"/>

  <!-- location pin -->
  <path d="M156 624C102 624 64 666 64 716C64 782 156 884 156 884C156 884 248 782 248 716C248 666 210 624 156 624Z" fill="white"/>
  <circle cx="156" cy="716" r="29" fill="#FF5A76"/>

  <!-- airplane -->
  <path d="M790 314L954 244C971 237 987 254 980 270L911 436C907 446 894 449 886 441L841 396L764 463C755 471 740 462 744 450L775 360L685 389C673 393 664 378 672 369L739 293L694 248C686 240 690 227 700 223L790 314Z" fill="white"/>

  <!-- suitcase body -->
  <g filter="url(#softShadow)">
    <rect x="328" y="390" width="368" height="402" rx="74" fill="white"/>
    <path d="M430 390V326C430 301 450 281 475 281H549C574 281 594 301 594 326V390" stroke="white" stroke-width="54" stroke-linecap="round"/>
    <path d="M430 390V326C430 301 450 281 475 281H549C574 281 594 301 594 326V390" stroke="url(#heart)" stroke-width="28" stroke-linecap="round"/>
    <rect x="372" y="762" width="48" height="86" rx="24" fill="white"/>
    <rect x="604" y="762" width="48" height="86" rx="24" fill="white"/>
  </g>

  <!-- suitcase heart -->
  <path d="M512 662C458 619 412 581 412 532C412 500 435 477 466 477C485 477 501 486 512 501C523 486 539 477 558 477C589 477 612 500 612 532C612 581 566 619 512 662Z" fill="url(#heart)"/>
</svg>
